<svg xmlns="http://www.w3.org/2000/svg" xmlns:xlink="http://www.w3.org/1999/xlink" width="166" height="44" viewBox="0 -15.06 2000 530.12">
  <defs>
    <style>
      .cls-1 {
        fill: red;
      }

      .cls-1, .cls-2 {
        fill-rule: evenodd;
      }
    </style>
    <clipPath id="clip-path">
      <rect width="2000" height="500"/>
    </clipPath>
  </defs>
  <g clip-path="url(#clip-path)">
    <path id="Æskusirkus" class="cls-1" d="M1155.3,381.033q-46.14-34.512-56.33-44.95-30.57-29.958-30.58-61.877a136.988,136.988,0,0,1,9.66-50.159q11.265-30.613,30.04-30.614,35.94,0,35.94,69.533,0,29.243-4.29,40.29-5.91,16.907-5.9,14.3,0,3.9,8.05,7.474t11.8,3.574a15.889,15.889,0,0,0,11.26-4.549q7.515-29.883,7.51-55.236,0-23.4-4.29-40.94-4.305-20.79-30.04-41.265t-43.99-20.47q-25.215,0-41.84,36.472a149.058,149.058,0,0,0-14.48,64.487q0,44.959,29.5,79.473,14.49,16.937,54.18,44.94,28.965,20.852,28.97,32.563,0,19.557-23.6,19.546-18.255,0-48.28-21.008-33.27-22.968-34.33-42.676h-3.22q-19.86-1.95-19.85,18.327,0,9.169,24.67,33.4,22.53,22.267,32.73,27.5,18.765,8.5,33.26,8.509,21.99,0,45.59-12.377,28.425-15.627,28.43-38.432,0-13.023-30.57-35.823h0ZM1258.45,81.661q-7.785-8.438-18.51-8.448-18.24,0-18.24,22.094,0,11.7,8.59,20.8,8.565,9.108,18.77,9.1,17.16,0,17.17-22.094Q1266.23,90.114,1258.45,81.661Zm-11.54,107.873c-4.65-3.026-9.11-4.549-13.41-4.549s-8.76,1.523-13.41,4.549V428.025q0,30.552,26.29,30.542,3.75,0,5.9-5.2-5.37-24.69-5.37-38.991V270.764q0-11.7,4.56-35.091t4.56-35.091q0-6.489-9.12-11.048h0Zm156.26,11.048q-9.39-16.236-14.75-20.145-9.66-7.144-19.31-7.149-12.87,0-24.68,16.246-2.145,3.26-16.09,29.243-0.54-12.336-1.07-25.344-2.16-11.7-15.56-11.7-10.74,0-14.48,2.925-3.765,2.924-3.76,15.921,0,35.745,2.68,107.223t2.69,107.223a49.284,49.284,0,0,1-1.34,9.423,48.084,48.084,0,0,0-1.35,9.422q0,22.755,18.24,22.745,16.095,0,16.1-14.3,0-3.243-2.15-9.422c-1.43-4.113-2.33-6.824-2.68-8.123q-2.7-13.647-2.68-73.432,0-46.788,6.43-74.731,16.62-76.671,33.8-76.681,26.28,0,27.89,40.94,3.225,6.5,7.51,6.5,6.435,0,13.41-13,0.54-8.437.54-11.047Q1412.56,216.837,1403.17,200.582ZM1628.1,472.864q-23.715-13.647-57.65-58.486-24.795-35.73-50.11-71.482-16.17-23.394-16.16-29.243,0-15.6,45.82-64.334,39.9-42.234,60.4-58.485l0.53-3.249a33.847,33.847,0,0,0-4.31-18.521q-4.845-8.772-12.92-8.772-5.385,0-36.08,37.69-18.855,23.394-37.69,46.789-30.165,35.091-47.39,48.088l-2.69-3.25,2.28-188.453q0-50.687,3.99-68.233,2.835-14.941,2.85-15.6,0-5.194-5.63-8.773-5.64-3.564-10.46-3.574-6.45,0-14.76,6.5t-8.31,13a96.313,96.313,0,0,0,1.48,14.946q2.475,11.057,2.48,14.3,2.475,22.1,2.48,60.435V293.508q0,8.454-1.61,25.019t-1.61,25.019v90.977q0,27.948,21.46,27.943c2.49,0,5.27-1.2,8.31-3.574s4.56-4.874,4.56-7.473q0-5.849-3.76-16.571t-3.75-16.571V353.943l9.69-15.6q10.755,7.8,24.76,27.943,16.14,24.049,22.6,30.543,2.16,2.6,38.76,55.236,29.07,40.94,40.9,40.94,8.085,0,21.54-13v-7.148Zm145.8-283.98q-7.53.656-15.02,9.1a52.482,52.482,0,0,0-.54,7.148q0,5.849,2.95,15.272t2.95,14.621v85.129q0,39.645-10.73,72.782-15.015,44.2-42.38,44.189-16.635,0-27.35-27.943a120.059,120.059,0,0,1-8.59-46.789q0-17.546,1.61-81.23,1.62-50.031,1.61-81.229,0-20.79-15.02-20.795-21.465,0-18.24,19.586V340.368q0,61.363,7.51,82.905,5.355,15.657,22,31.324,18.225,17.607,32.18,15.018,37.545-7.418,53.11-36.391,2.13,11.7,4.29,24.044,4.29,12.336,16.09,12.347c3.93,0,6.98-.874,9.12-2.6q5.355-5.849,5.37-34.441,0-14.286-1.88-47.113-1.89-32.808-1.88-44.514,0-29.244,3.49-69.208t3.49-60.11q0-25.344-24.14-22.745h0Zm178.52,192.149q-46.14-34.512-56.33-44.95-30.57-29.958-30.57-61.877a137.182,137.182,0,0,1,9.65-50.159q11.265-30.613,30.04-30.614,35.94,0,35.95,69.533,0,29.243-4.3,40.29-5.91,16.907-5.9,14.3,0,3.9,8.05,7.474t11.8,3.574a15.912,15.912,0,0,0,11.27-4.549q7.5-29.883,7.51-55.236,0-23.4-4.3-40.94-4.29-20.79-30.04-41.265t-43.98-20.47q-25.23,0-41.84,36.472a148.925,148.925,0,0,0-14.49,64.487q0,44.959,29.51,79.473,14.475,16.937,54.18,44.94,28.965,20.852,28.96,32.563,0,19.557-23.6,19.546-18.24,0-48.28-21.008-33.27-22.968-34.33-42.676h-3.22q-19.845-1.95-19.85,18.327,0,9.169,24.68,33.4,22.53,22.267,32.72,27.5,18.765,8.5,33.26,8.509,21.99,0,45.6-12.377Q1983,439.661,1983,416.856q0-13.023-30.58-35.823h0Z"/>
    <path id="Æskusirkus_copy" data-name="Æskusirkus copy" class="cls-2" d="M1.01,454.668H18.176L74.824,322.621H189.835V454.668H371.793V434.913H208.717V271.674h150.2V251.919h-150.2V103.236H371.364V83.481H161.082Zm188.825-151.8H83.407l86.259-199.63h20.17v199.63Zm204.271,62.9q0.423,23.4,7.3,41.07a86.655,86.655,0,0,0,18.882,29.893,76.028,76.028,0,0,0,28.109,18.195,99.785,99.785,0,0,0,34.976,5.979,137.706,137.706,0,0,0,29.825-3.379,78.246,78.246,0,0,0,27.68-11.957,69.2,69.2,0,0,0,20.6-22.615q8.148-14.036,8.154-35.871,0-20.787-6.008-34.311a58.845,58.845,0,0,0-16.522-22.1,80.31,80.31,0,0,0-24.89-13.516,288.08,288.08,0,0,0-30.684-8.578q-13.308-3.632-26.393-7.279a103.3,103.3,0,0,1-23.6-9.617,48.4,48.4,0,0,1-16.951-15.856q-6.438-9.87-6.437-25.994,0-14.036,5.793-23.914a50.2,50.2,0,0,1,14.806-16.116,58.308,58.308,0,0,1,20.384-8.838,100.969,100.969,0,0,1,22.53-2.6,82.973,82.973,0,0,1,25.749,3.9,56.038,56.038,0,0,1,20.814,11.957,54.069,54.069,0,0,1,13.732,21.055q4.929,13,4.935,31.192H563.19q0-22.871-6.223-38.99T539.8,200.971A65.382,65.382,0,0,0,513.838,185.9a107.705,107.705,0,0,0-32.186-4.679,121.75,121.75,0,0,0-28.323,3.38,75.873,75.873,0,0,0-25.535,11.177,60.1,60.1,0,0,0-18.668,21.055q-7.3,13.255-7.295,33.011,0,27.561,11.158,41.85A74.528,74.528,0,0,0,441.1,313.783a163.44,163.44,0,0,0,36.477,11.7,244.008,244.008,0,0,1,36.478,10.138q16.947,6.238,28.109,17.676t11.158,33.791q0,17.156-6.867,28.333a50.589,50.589,0,0,1-17.38,17.416,70.031,70.031,0,0,1-22.745,8.578,122.616,122.616,0,0,1-22.959,2.339,73.725,73.725,0,0,1-27.9-5.2,63.677,63.677,0,0,1-22.53-15.336,79.732,79.732,0,0,1-15.664-24.434q-6.015-14.292-6.866-33.012H394.106Zm216.285,88.9H626.7V353.813l50.21-51.467,93.983,152.322h22.316L689.783,287.27l96.558-99.815h-23.6L626.7,329.379V83.481H610.391V454.668ZM983.318,187.455H967.01V331.979a177.721,177.721,0,0,1-5.364,44.969q-5.371,20.543-15.664,35.351a75.311,75.311,0,0,1-25.105,23.134,66.7,66.7,0,0,1-33.259,8.318q-22.752,0-35.19-9.878a62.941,62.941,0,0,1-18.668-23.654,87.315,87.315,0,0,1-7.51-28.593q-1.287-14.815-1.287-25.213V187.455H808.655V352.774q0,8.322.429,19.5a165.936,165.936,0,0,0,2.575,23.134,111.011,111.011,0,0,0,7.081,23.654,72.614,72.614,0,0,0,13.518,21.055,62.431,62.431,0,0,0,22.1,15.076q13.518,5.715,32.83,5.719a79.5,79.5,0,0,0,25.32-4.159,75.142,75.142,0,0,0,22.959-12.477,89.121,89.121,0,0,0,18.453-20.015,92.3,92.3,0,0,0,12.231-26.773h0.858v57.185h16.308V187.455Z"/>
  </g>
</svg>
